HIERARCHY
ROOT hip
{
	OFFSET 0.000000 0.000000 0.000000 
	CHANNELS 6 Xposition Yposition Zposition Xrotation Zrotation Yrotation
	JOINT abdomen
	{
		OFFSET 0.000000 3.402643 0.000000 
		CHANNELS 3 Xrotation Zrotation Yrotation
		JOINT chest
		{
			OFFSET 0.000000 8.438565 -0.680529 
			CHANNELS 3 Xrotation Zrotation Yrotation
			JOINT neck
			{
				OFFSET 0.000000 10.207942 -0.272212 
				CHANNELS 3 Xrotation Zrotation Yrotation
				JOINT head
				{
					OFFSET 0.000000 3.130431 0.000000 
					CHANNELS 3 Xrotation Zrotation Yrotation
					End Site
					{
						OFFSET 0.000000 3.130435 0.000000 
					}
				}
			}
			JOINT lCollar
			{
				OFFSET 3.470700 6.669187 -0.816635 
				CHANNELS 3 Yrotation Zrotation Xrotation
				JOINT lShldr
				{
					OFFSET 3.198488 0.000000 0.000000 
					CHANNELS 3 Zrotation Yrotation Xrotation
					JOINT lForeArm
					{
						OFFSET 10.139888 0.000000 0.000000 
						CHANNELS 3 Yrotation Zrotation Xrotation
						JOINT lHand
						{
							OFFSET 8.370511 0.000000 0.000000 
							CHANNELS 3 Zrotation Yrotation Xrotation
							End Site
							{
								OFFSET 4.083176 0.000000 0.000000 
							}
						}
					}
				}
			}
			JOINT rCollar
			{
				OFFSET -3.470700 6.669187 -0.816635 
				CHANNELS 3 Yrotation Zrotation Xrotation
				JOINT rShldr
				{
					OFFSET -3.198488 0.000000 0.000000 
					CHANNELS 3 Zrotation Yrotation Xrotation
					JOINT rForeArm
					{
						OFFSET -10.139888 0.000000 0.000000 
						CHANNELS 3 Yrotation Zrotation Xrotation
						JOINT rHand
						{
							OFFSET -8.370511 0.000000 0.000000 
							CHANNELS 3 Zrotation Yrotation Xrotation
							End Site
							{
								OFFSET -4.083176 0.000000 0.000000 
							}
						}
					}
				}
			}
		}
	}
	JOINT lThigh
	{
		OFFSET 5.308129 -1.633274 1.361059 
		CHANNELS 3 Xrotation Zrotation Yrotation
		JOINT lShin
		{
			OFFSET -2.041588 -20.007561 0.000000 
			CHANNELS 3 Xrotation Zrotation Yrotation
			JOINT lFoot
			{
				OFFSET 0.000000 -19.190928 -1.224953 
				CHANNELS 3 Xrotation Yrotation Zrotation
				End Site
				{
					OFFSET 0.000000 -2.449906 4.627600 
				}
			}
		}
	}
	JOINT rThigh
	{
		OFFSET -5.308129 -1.633274 1.361059 
		CHANNELS 3 Xrotation Zrotation Yrotation
		JOINT rShin
		{
			OFFSET 2.041588 -20.007561 0.000000 
			CHANNELS 3 Xrotation Zrotation Yrotation
			JOINT rFoot
			{
				OFFSET 0.000000 -19.190928 -1.224953 
				CHANNELS 3 Xrotation Yrotation Zrotation
				End Site
				{
					OFFSET 0.000000 -2.449906 4.627600 
				}
			}
		}
	}
}
MOTION
Frames: 18
Frame Time: 0.033333
0.098644 52.986526 -3.195804 -10.400392 -1.064453 170.166016 33.643612 -5.171325 -5.071389 -19.433596 17.802736 2.822266 51.063168 8.107644 2.471410 -80.585938 -7.675781 8.837891 2.000000 -2.000000 0.000000 -83.056641 0.800781 0.234375 -53.392445 -1.783150 -2.112510 -1.641850 63.516853 -4.171080 -2.000000 2.000000 0.000000 75.976563 -16.396486 -13.879709 51.602585 1.689155 -2.010716 41.321003 -33.097202 -31.292398 -20.370972 5.449364 13.736373 40.442535 -4.068352 -3.454545 13.832361 5.790082 2.766160 -5.690245 -4.118844 -0.138013 4.146876 5.548981 0.277729 -1.182047 -7.007167 0.423048 
0.200512 52.518612 -6.367308 -10.224608 -1.064453 169.638489 33.131668 -5.623743 -3.919774 -19.941408 15.742189 4.628907 51.063168 8.107644 2.471410 -78.740234 -9.580077 5.156250 2.000000 -2.000000 0.000000 -87.890625 8.574219 1.524895 -53.568504 -1.773969 -2.122824 -2.642996 65.893631 -3.859483 -2.000000 2.000000 0.000000 74.960938 -16.289064 -15.556641 51.603661 1.828485 -2.051505 36.352337 -33.831814 -26.822567 -25.252821 5.780664 14.219770 36.206181 -4.298676 -3.180698 5.260564 5.357791 2.803032 -2.380817 -4.926504 -0.790142 5.904902 5.389715 0.336609 -5.298720 -5.720582 -0.097908 
0.295910 51.993824 -9.587399 -10.224608 -1.064453 168.935379 32.776684 -6.067620 -2.764955 -20.595705 14.033204 6.123047 51.063168 8.107644 2.471410 -77.265625 -10.312499 2.148437 2.000000 -2.000000 0.000000 -91.308594 16.416018 1.145340 -53.742752 -1.584758 -2.065411 -2.677347 68.218140 -3.111123 -2.000000 2.000000 0.000000 75.292969 -16.191408 -17.128906 51.603661 1.828485 -2.051505 33.342815 -34.095501 -24.540689 -29.804016 6.093611 14.489237 31.627253 -4.547728 -2.843633 -2.293815 4.533749 3.149945 0.604792 -5.404719 -1.259058 7.701961 5.173339 0.362037 -7.901865 -4.180015 -0.541731 
0.375076 51.417107 -12.928961 -10.039063 -1.064453 168.378723 32.648399 -6.503869 -1.992209 -21.191408 13.027344 7.070313 51.063168 8.107644 2.471410 -76.689453 -9.130858 0.945716 2.000000 -2.000000 0.000000 -93.378906 23.212889 -2.447323 -54.084858 -1.556080 -2.076862 -1.081086 70.370949 -0.914964 -2.000000 2.000000 0.000000 77.138672 -15.966799 -18.108154 51.602585 1.689155 -2.010716 34.889980 -33.768726 -26.449036 -32.993523 5.955132 14.225341 26.181255 -4.770113 -2.434422 -6.050350 3.817235 3.068610 3.718089 -6.393089 -2.621728 9.142914 5.141418 0.938554 -8.874714 -2.970644 -0.343775 
0.431882 50.809208 -16.366386 -10.039063 -1.064453 167.851379 32.704655 -7.611585 -1.432433 -21.738281 12.880860 7.453350 51.063168 8.107644 2.471410 -77.021484 -6.806640 0.994936 2.000000 -2.000000 0.000000 -95.126953 28.623045 -7.763672 -54.611168 -1.358256 -2.039510 3.054813 72.295113 3.937933 -2.000000 2.000000 0.000000 79.804688 -15.175782 -19.123652 51.602585 1.689155 -2.010716 38.091797 -33.007931 -30.051737 -34.073257 5.484873 11.233293 16.309509 -5.037815 -1.660605 -1.582676 3.699767 3.162841 6.195403 -7.064914 -2.972508 11.247329 4.714797 1.118081 -7.783767 -2.587478 -0.598648 
0.470423 50.096157 -19.823328 -10.048828 -1.396484 167.743896 32.764179 -8.724833 -0.888658 -22.089844 13.066405 7.568361 51.063168 8.107644 2.471410 -78.212891 -5.205078 0.595703 2.000000 -2.000000 0.000000 -96.132813 32.001953 -10.756542 -54.963272 -1.349644 -2.059570 6.057488 73.637367 6.882580 -2.000000 2.000000 0.000000 82.207031 -14.833984 -20.351561 51.426800 1.689155 -2.010716 41.025536 -32.126965 -32.416359 -33.442173 4.412707 6.847646 4.486316 -5.248608 -0.583715 7.794547 4.039747 3.332040 9.126336 -7.682091 -3.671480 11.763558 4.665311 1.135621 -4.935445 -2.703908 -1.479630 
0.496304 49.346157 -23.296934 -10.205078 -2.080078 167.870743 32.893646 -10.031609 -0.691571 -22.617188 13.613281 7.343751 51.063168 8.107644 2.471410 -81.308594 -5.537109 -0.440395 2.000000 -2.000000 0.000000 -95.273438 33.408203 -9.887200 -54.786964 -1.348507 -2.040078 6.763959 74.140594 7.649778 -2.000000 2.000000 0.000000 83.837891 -14.804688 -22.392576 50.898872 1.717264 -1.989524 42.770992 -30.028677 -31.707327 -32.181477 3.367968 4.231485 -1.844876 -5.259924 -0.063217 11.921084 3.945446 4.417449 13.120824 -8.591356 -3.280466 9.830880 4.733734 0.821668 -0.825060 -3.384150 -1.332579 
0.515144 48.251263 -26.784430 -10.224608 -2.958984 168.378296 33.223019 -11.107431 -0.555178 -23.115234 14.335938 6.943360 51.063168 8.107644 2.471410 -84.912109 -6.767578 -1.777344 2.000000 -2.000000 0.000000 -93.740234 33.740238 -7.314454 -54.611168 -1.358256 -2.039510 7.135459 74.485458 7.931082 -2.000000 2.000000 0.000000 85.410156 -15.205080 -24.690062 50.380753 1.725876 -1.969171 44.499386 -27.951288 -29.683722 -36.559231 2.343728 3.773533 12.605319 -5.168245 -1.306774 5.499866 4.321050 3.415477 20.514498 -8.983042 -3.048586 0.674326 4.839250 0.240582 7.000880 -7.100344 -7.468966 
0.532529 47.958542 -30.282572 -10.419922 -4.003906 169.121094 33.396976 -11.949064 -0.484487 -23.642578 14.873048 6.513673 51.063168 8.107644 2.471410 -86.962891 -7.998045 -2.188859 2.000000 -2.000000 0.000000 -91.884766 33.261719 -3.964844 -54.447601 -1.666729 -2.129079 7.900379 74.081665 8.001755 -2.000000 2.000000 0.000000 86.337891 -15.937500 -25.878906 50.020210 1.874387 -1.999943 43.289665 -28.759970 -28.584652 -35.361221 1.250151 4.606906 17.912651 -5.577456 -1.703426 3.220537 3.570966 3.575771 21.996019 -9.412319 -1.956855 -0.917208 4.870049 0.073102 23.783365 -10.900205 -11.115083 
0.558967 48.847202 -33.791119 -10.585937 -4.511718 169.735550 33.481678 -11.466279 -1.019008 -24.003908 14.716797 6.406250 51.063168 8.107644 2.471410 -85.195313 -9.111327 -0.380859 2.000000 -2.000000 0.000000 -90.029297 31.328125 -1.064453 -54.084877 -1.546330 -2.077431 5.699236 72.892723 5.585033 -2.000000 2.000000 0.000000 86.142578 -17.539064 -24.277346 50.028912 1.735056 -1.958857 36.495785 -36.349506 -29.295952 -31.288038 -0.009720 5.378748 17.376202 -5.440607 -1.773926 2.878704 2.589987 3.711610 21.244265 -9.431175 -1.572989 -3.529273 5.227501 -0.116128 33.121006 -13.301289 -13.546687 
0.585406 49.854031 -37.299557 -10.605469 -5.019531 170.360474 33.568825 -11.195652 -1.489153 -24.560547 14.746093 6.093750 51.063168 8.107644 2.471410 -83.427734 -10.234374 1.367188 2.000000 -2.000000 0.000000 -88.662109 29.326172 1.464844 -53.919945 -1.695408 -2.117628 5.068231 71.638947 4.093920 -2.000000 2.000000 0.000000 86.171875 -19.228516 -22.890625 50.025280 1.844643 -1.825342 28.844849 -43.927753 -28.965805 -27.182554 -0.957487 5.997914 17.209671 -5.594312 -1.653393 2.365983 1.890011 3.998222 20.514853 -9.422815 -1.531630 -3.364594 5.217703 -0.131041 42.416019 -15.955216 -15.095798 
0.632125 50.900810 -40.812504 -10.410156 -4.677734 170.633972 33.778103 -8.928434 -2.710049 -25.117189 14.062501 5.898438 51.063168 8.107644 2.471410 -80.400391 -10.537108 4.353683 2.000000 -2.000000 0.000000 -87.861328 25.253906 2.972916 -53.569618 -1.893799 -2.164728 3.503462 69.151764 1.615046 -2.000000 2.000000 0.000000 84.736328 -20.810545 -19.095263 50.201042 1.854392 -1.824773 21.692350 -50.551441 -27.677183 -20.146744 -1.641048 6.416551 12.087054 -5.302293 -1.479667 2.571585 1.497867 3.532692 5.106328 -9.208032 -0.951943 14.943535 4.625724 1.403432 35.097927 -12.803068 -8.263234 
0.699818 52.943298 -44.324532 -10.058594 -3.828125 170.800781 33.840412 -6.685817 -4.177573 -25.507813 13.544923 5.751953 51.063168 8.107644 2.471410 -77.470703 -9.482421 6.396485 2.000000 -2.000000 0.000000 -86.640625 21.074219 4.075779 -53.568523 -1.764220 -2.123393 1.818101 66.648193 -1.005100 -2.000000 2.000000 0.000000 82.949219 -22.109375 -14.345704 50.380733 1.735625 -1.968603 20.278008 -52.423523 -27.092604 -14.224032 -1.777472 5.870815 9.078956 -5.750736 -0.940774 3.926166 1.964570 3.596399 -10.933934 -8.795990 -0.906549 32.704006 4.311785 2.790964 23.296103 -9.320017 -0.772951 
0.794127 53.386410 -47.832626 -9.687501 -2.626953 170.927734 33.670113 -5.220746 -5.328755 -25.498047 13.720703 5.429688 51.063168 8.107644 2.471410 -74.335938 -8.027343 7.333984 2.000000 -2.000000 0.000000 -84.462891 16.445311 4.365235 -54.272038 -1.696545 -2.137119 0.448249 64.460358 -3.506839 -2.000000 2.000000 0.000000 81.914063 -23.212891 -10.404241 50.556782 1.736194 -1.978644 21.319483 -52.438358 -26.769999 -7.074207 -1.708095 5.580455 3.433564 -5.454921 -0.702593 4.295019 1.654640 3.172883 -22.464981 -8.074427 -0.987406 42.557102 3.681396 3.322396 13.647531 -7.705164 4.414125 
0.920625 53.199005 -51.333893 -9.521484 -1.572266 171.288788 33.297218 -4.604713 -6.417384 -25.478516 14.589844 4.960938 51.063168 8.107644 2.471410 -71.611328 -6.435546 7.285156 2.000000 -2.000000 0.000000 -80.947266 10.810547 6.007690 -55.316956 -1.539991 -2.136472 -2.102373 62.199970 -7.365875 -2.000000 2.000000 0.000000 80.947266 -24.160156 -7.783204 50.898872 1.717264 -1.989524 22.515116 -52.331139 -27.265053 0.594450 -1.245253 4.069979 -3.561387 -5.305486 0.268825 3.701361 2.299339 3.212101 -27.632336 -7.186801 -1.269135 40.084724 3.853586 3.137964 7.339127 -7.616762 6.065496 
1.084937 52.631851 -54.825432 170.498047 -179.326172 -7.998162 33.069504 -4.601610 -7.486670 -25.224609 16.171875 4.436315 51.063168 8.107644 2.471410 -70.087891 -5.634765 7.303728 2.000000 -2.000000 0.000000 -77.861328 6.005859 6.601562 -56.383392 -1.632277 -2.209317 -3.572289 59.930901 -10.064341 -2.000000 2.000000 0.000000 80.234375 -25.312500 -5.775660 51.250717 1.708084 -1.999836 22.064602 -52.007061 -27.893951 7.596384 -0.986032 2.986720 -8.114820 -5.436666 0.548433 2.257321 2.323151 3.026331 -29.203823 -6.258789 -1.948535 30.049919 4.393291 2.626744 1.269473 -7.789603 5.521021 
1.291847 51.641346 -58.313736 170.146484 -179.667969 -6.464901 32.630058 -4.678790 -8.397985 -24.785156 17.910158 3.974610 51.063168 8.107644 2.471410 -70.439453 -5.576171 7.158204 2.000000 -2.000000 0.000000 -75.917969 2.128906 5.976563 -57.087368 -1.604733 -2.240260 -4.083110 58.175774 -11.652164 -2.000000 2.000000 0.000000 79.814453 -26.367188 -4.672305 51.602810 1.709222 -2.019327 21.122805 -50.782013 -28.766840 13.686045 -0.633676 1.951772 -12.692980 -5.374491 0.955618 1.468190 1.651578 3.574328 -29.204998 -5.195078 -2.001004 17.882448 4.981466 1.190224 -3.777225 -7.320103 4.488276 
1.538046 50.583965 -61.806210 169.267593 179.990234 -4.218749 32.178535 -4.851861 -9.137220 -24.541016 19.306641 3.470026 51.063168 8.107644 2.471410 -72.080078 -5.869140 6.806641 2.000000 -2.000000 0.000000 -74.951172 -0.898438 4.589690 -57.791302 -1.596687 -2.270064 -2.893726 56.909966 -10.781016 -2.000000 2.000000 0.000000 79.667969 -27.060547 -3.916016 51.778889 1.690292 -2.030207 19.987362 -50.579681 -29.020353 18.304359 -0.048209 1.037742 -15.005695 -5.112930 1.615397 0.499006 0.161338 3.876527 -30.358498 -4.267184 -2.898720 9.602795 5.123140 0.819618 -6.641233 -5.948937 3.502864 
